<svg width="40" height="40" viewBox="0 0 40 40" fill="none" xmlns="http://www.w3.org/2000/svg">
<path fill-rule="evenodd" clip-rule="evenodd" d="M3.375 29.5V8.125H36.625V29.5H3.375ZM36.625 5.75H3.375C2.74511 5.75 2.14102 6.00022 1.69562 6.44562C1.25022 6.89102 1 7.49511 1 8.125V31.875C1 32.5049 1.25022 33.109 1.69562 33.5544C2.14102 33.9998 2.74511 34.25 3.375 34.25H36.625C37.2549 34.25 37.859 33.9998 38.3044 33.5544C38.7498 33.109 39 32.5049 39 31.875V8.125C39 7.49511 38.7498 6.89102 38.3044 6.44562C37.859 6.00022 37.2549 5.75 36.625 5.75ZM34.25 20H24.75V27.125H34.25V20Z" fill="white"/>
</svg>
