<svg width="40" height="40" viewBox="0 0 40 40" fill="none" xmlns="http://www.w3.org/2000/svg">
<path fill-rule="evenodd" clip-rule="evenodd" d="M21.2667 25.4644V11.1333H18.7333V25.4467L13.8592 19.7821L11.9389 21.4288L20.0025 30.8072L28.0965 21.4339L26.1763 19.7796L21.2667 25.4644ZM20 1C9.50693 1 1 9.50693 1 20C1 30.4931 9.50693 39 20 39C30.4931 39 39 30.4931 39 20C39 9.50693 30.4931 1 20 1ZM20 36.4667C10.9205 36.4667 3.53333 29.0795 3.53333 20C3.53333 10.9205 10.9205 3.53333 20 3.53333C29.0795 3.53333 36.4667 10.9205 36.4667 20C36.4667 29.0795 29.0795 36.4667 20 36.4667Z" fill="white"/>
</svg>
