<svg width="40" height="40" viewBox="0 0 40 40" fill="none" xmlns="http://www.w3.org/2000/svg">
<path fill-rule="evenodd" clip-rule="evenodd" d="M13.1919 6.46774V27.9227C11.9424 26.3767 10.0337 25.3838 7.89674 25.3838C4.14284 25.3838 1.08865 28.438 1.08865 32.1919C1.08865 35.9458 4.14284 39 7.89674 39C11.6506 39 14.7048 35.9458 14.7048 32.1919V7.69226L37.3985 2.8675V23.3154C36.1494 21.7694 34.2412 20.7765 32.1033 20.7765C28.3494 20.7765 25.2952 23.8307 25.2952 27.5846C25.2952 31.3385 28.3494 34.3927 32.1033 34.3927C35.8572 34.3927 38.9114 31.3385 38.9114 27.5846V1L13.1919 6.46774ZM7.89674 37.4871C4.97683 37.4871 2.60156 35.1114 2.60156 32.1919C2.60156 29.2715 4.97683 26.8967 7.89674 26.8967C10.8167 26.8967 13.1919 29.2715 13.1919 32.1919C13.1919 35.1109 10.8157 37.4871 7.89674 37.4871ZM32.1033 32.8798C29.1834 32.8798 26.8081 30.5045 26.8081 27.5846C26.8081 24.6657 29.1834 22.2895 32.1033 22.2895C35.0232 22.2895 37.3985 24.6657 37.3985 27.5846C37.3985 30.5055 35.0222 32.8798 32.1033 32.8798Z" fill="white"/>
</svg>
