<svg width="40" height="40" viewBox="0 0 40 40" fill="none" xmlns="http://www.w3.org/2000/svg">
<path d="M20 1C16.2422 1 12.5687 2.11433 9.44417 4.20208C6.31964 6.28982 3.88436 9.25722 2.4463 12.729C1.00823 16.2008 0.631969 20.0211 1.36509 23.7067C2.09821 27.3923 3.90778 30.7778 6.56498 33.435C9.22218 36.0922 12.6077 37.9018 16.2933 38.6349C19.9789 39.368 23.7992 38.9918 27.271 37.5537C30.7428 36.1156 33.7102 33.6804 35.7979 30.5558C37.8857 27.4313 39 23.7578 39 20C39 14.9609 36.9982 10.1282 33.435 6.56497C29.8718 3.00178 25.0391 1 20 1V1ZM20 29.5C18.1211 29.5 16.2844 28.9428 14.7221 27.899C13.1598 26.8551 11.9422 25.3714 11.2232 23.6355C10.5041 21.8996 10.316 19.9895 10.6825 18.1466C11.0491 16.3038 11.9539 14.6111 13.2825 13.2825C14.6111 11.9539 16.3038 11.0491 18.1466 10.6825C19.9895 10.316 21.8996 10.5041 23.6355 11.2231C25.3714 11.9422 26.8551 13.1598 27.899 14.7221C28.9428 16.2843 29.5 18.1211 29.5 20C29.5 22.5196 28.4991 24.9359 26.7175 26.7175C24.9359 28.4991 22.5196 29.5 20 29.5Z" fill="white"/>
</svg>
