<svg width="40" height="40" viewBox="0 0 40 40" fill="none" xmlns="http://www.w3.org/2000/svg">
<path fill-rule="evenodd" clip-rule="evenodd" d="M29.3008 28.1934L37.4721 37.782L36.0548 39L27.8613 29.4114C25.0415 31.552 21.8675 32.6223 18.3391 32.6223C16.1984 32.6223 14.1501 32.2052 12.194 31.3711C10.2379 30.537 8.55496 29.4151 7.14503 28.0052C5.73511 26.5953 4.61312 24.9123 3.77909 22.9562C2.94505 21.0001 2.528 18.9518 2.52794 16.8111C2.52788 14.6705 2.94493 12.6222 3.77909 10.6661C4.61324 8.70995 5.73522 7.02696 7.14503 5.61709C8.55484 4.20723 10.2378 3.08524 12.194 2.25115C14.1502 1.41705 16.1985 1 18.3391 1C20.4796 1 22.528 1.41705 24.4842 2.25115C26.4403 3.08524 28.1233 4.20723 29.5331 5.61709C30.9429 7.02696 32.0649 8.70995 32.8991 10.6661C33.7332 12.6222 34.1503 14.6705 34.1502 16.8111C34.1502 19.0108 33.7221 21.0924 32.8659 23.0559C32.0096 25.0194 30.8212 26.7319 29.3006 28.1934L29.3008 28.1934ZM18.3393 30.7621C20.8637 30.7621 23.1963 30.1383 25.3369 28.8908C27.4776 27.6433 29.1717 25.9492 30.4191 23.8086C31.6666 21.668 32.2903 19.3355 32.2904 16.811C32.2904 14.2865 31.6667 11.9539 30.4191 9.8133C29.1715 7.67269 27.4775 5.97866 25.3369 4.7312C23.1964 3.48375 20.8638 2.86002 18.3393 2.86002C15.8147 2.86002 13.4821 3.48375 11.3416 4.7312C9.20104 5.97866 7.50701 7.67269 6.25949 9.8133C5.01198 11.9539 4.38825 14.2865 4.38831 16.811C4.38837 19.3355 5.01209 21.668 6.25949 23.8086C7.50689 25.9492 9.20092 27.6433 11.3416 28.8908C13.4823 30.1383 15.8148 30.7621 18.3393 30.7621Z" fill="white"/>
</svg>
