<svg width="38" height="40" viewBox="0 0 38 40" fill="none" xmlns="http://www.w3.org/2000/svg">
<g clip-path="url(#clip0)">
<path d="M14.249 5.55078L8.58544 12.5H2.08857C1.24447 12.5 0.560791 13.3391 0.560791 14.375V25.625C0.560791 26.6602 1.24447 27.5 2.08857 27.5H8.58544L14.249 34.4492C15.2058 35.6234 16.8571 34.7984 16.8571 33.1234V6.87656C16.8571 5.2 15.2045 4.37812 14.249 5.55078ZM29.1016 1.56015C28.3905 0.987496 27.435 1.2289 26.9684 2.10312C26.5012 2.97578 26.6998 4.14843 27.4109 4.72109C31.6294 8.11875 34.1471 13.8305 34.1471 20.0008C34.1471 26.1711 31.6294 31.8828 27.4109 35.2805C26.6998 35.8523 26.5012 37.0258 26.9684 37.8977C27.4166 38.7344 28.3644 39.0352 29.1016 38.4406C34.1891 34.3422 37.2275 27.4477 37.2275 20C37.2275 12.5523 34.1891 5.65859 29.1016 1.56015ZM31.1163 20C31.1163 15.0367 29.0755 10.4734 25.6565 7.79375C24.9441 7.23593 23.9994 7.49531 23.5481 8.37656C23.0968 9.25781 23.3075 10.4242 24.0198 10.9828C26.5502 12.9664 28.0608 16.3367 28.0608 20C28.0608 23.6633 26.5502 27.0336 24.0198 29.0172C23.3075 29.575 23.0968 30.7414 23.5481 31.6234C23.9625 32.4328 24.8926 32.8062 25.6565 32.2062C29.0755 29.5266 31.1163 24.9641 31.1163 20ZM22.0916 13.9945C21.3545 13.5 20.4244 13.8258 20.0158 14.7328C19.609 15.6398 19.8783 16.7797 20.6173 17.2805C21.4391 17.8344 21.9497 18.8773 21.9497 20C21.9497 21.1234 21.4391 22.1656 20.618 22.7195C19.8789 23.2203 19.6096 24.3602 20.0164 25.2672C20.4257 26.1781 21.3564 26.5016 22.0923 26.0055C23.8893 24.7906 25.0059 22.4898 25.0059 19.9992C25.0059 17.5086 23.8893 15.2086 22.0916 13.9945Z" fill="#B3B3B3"/>
</g>
<defs>
<clipPath id="clip0">
<rect width="36.6667" height="40" fill="white" transform="translate(0.560791)"/>
</clipPath>
</defs>
</svg>
