<svg width="37" height="40" viewBox="0 0 37 40" fill="none" xmlns="http://www.w3.org/2000/svg">
<g clip-path="url(#clip0)">
<path d="M20.7599 5.62809L12.2645 12.5781H2.51921C1.25306 12.5781 0.227539 13.4171 0.227539 14.4531V25.7031C0.227539 26.7382 1.25306 27.5781 2.51921 27.5781H12.2645L20.7599 34.5273C22.1951 35.7015 24.672 34.8765 24.672 33.2015V6.95465C24.672 5.2773 22.1932 4.45621 20.7599 5.62809ZM32.5238 14.0718C31.4181 13.5773 30.023 13.9031 29.41 14.8101C28.7999 15.7171 29.2038 16.857 30.3124 17.3578C31.5451 17.9125 32.3109 18.9546 32.3109 20.0781C32.3109 21.2015 31.5451 22.2437 30.3133 22.7976C29.2047 23.2984 28.8008 24.4382 29.411 25.3453C30.0249 26.2562 31.4209 26.5796 32.5248 26.0836C35.2203 24.8687 36.8952 22.5679 36.8952 20.0773C36.8952 17.5867 35.2203 15.2867 32.5238 14.0718Z" fill="white"/>
</g>
<defs>
<clipPath id="clip0">
<rect width="36.6667" height="40" fill="white" transform="translate(0.227539)"/>
</clipPath>
</defs>
</svg>
